<svg width="746" height="746" viewBox="0 0 746 746" fill="none" xmlns="http://www.w3.org/2000/svg">
<g filter="url(#filter0_f_21905_55780)">
<ellipse cx="373" cy="372.952" rx="255.5" ry="255.5" fill="url(#paint0_linear_21905_55780)"/>
</g>
<circle cx="373.001" cy="412.488" r="243.78" fill="white" fill-opacity="0.02"/>
<circle cx="373.001" cy="412.488" r="243.28" stroke="white" stroke-opacity="0.1"/>
<path d="M622.141 412.215C622.141 546.564 510.608 655.495 373.001 655.495C235.394 655.495 123.861 546.564 123.861 412.215C123.861 277.867 235.394 168.936 373.001 168.936C510.608 168.936 622.141 277.867 622.141 412.215Z" stroke="white" stroke-opacity="0.1"/>
<g filter="url(#filter1_d_21905_55780)">
<ellipse cx="372.522" cy="168.601" rx="2.63704" ry="2.63704" transform="rotate(-105 372.522 168.601)" fill="white" fill-opacity="0.8" shape-rendering="crispEdges"/>
</g>
<line x1="372.5" y1="269" x2="372.5" y2="44" stroke="url(#paint1_linear_21905_55780)" stroke-opacity="0.2"/>
<circle cx="570.193" cy="190.996" r="0.879014" fill="white" fill-opacity="0.3"/>
<circle cx="484.635" cy="209.748" r="0.879014" fill="white" fill-opacity="0.5"/>
<circle cx="547.338" cy="129.465" r="0.879014" fill="white" fill-opacity="0.2"/>
<circle cx="433.652" cy="121.847" r="0.879014" fill="white" fill-opacity="0.3"/>
<circle cx="564.92" cy="106.024" r="0.879014" fill="white" fill-opacity="0.2"/>
<circle cx="284.805" cy="219.709" r="0.879014" fill="white" fill-opacity="0.5"/>
<circle cx="304.143" cy="164.625" r="0.879014" fill="white" fill-opacity="0.5"/>
<circle cx="270.741" cy="82.5831" r="0.879014" fill="white" fill-opacity="0.3"/>
<circle cx="428.379" cy="135.324" r="0.879014" fill="white" fill-opacity="0.5"/>
<circle cx="206.866" cy="202.13" r="0.879014" fill="white" fill-opacity="0.4"/>
<circle cx="233.824" cy="149.977" r="0.879014" fill="white" fill-opacity="0.2"/>
<circle cx="244.372" cy="157.008" r="0.879014" fill="white" fill-opacity="0.3"/>
<circle cx="130.1" cy="154.662" r="0.879014" fill="white" fill-opacity="0.2"/>
<defs>
<filter id="filter0_f_21905_55780" x="0.29821" y="0.250359" width="745.404" height="745.404" filterUnits="userSpaceOnUse" color-interpolation-filters="sRGB">
<feFlood flood-opacity="0" result="BackgroundImageFix"/>
<feBlend mode="normal" in="SourceGraphic" in2="BackgroundImageFix" result="shape"/>
<feGaussianBlur stdDeviation="58.6009" result="effect1_foregroundBlur_21905_55780"/>
</filter>
<filter id="filter1_d_21905_55780" x="353.477" y="149.555" width="38.0919" height="38.0919" filterUnits="userSpaceOnUse" color-interpolation-filters="sRGB">
<feFlood flood-opacity="0" result="BackgroundImageFix"/>
<feColorMatrix in="SourceAlpha" type="matrix" values="0 0 0 0 0 0 0 0 0 0 0 0 0 0 0 0 0 0 127 0" result="hardAlpha"/>
<feOffset/>
<feGaussianBlur stdDeviation="8.20413"/>
<feComposite in2="hardAlpha" operator="out"/>
<feColorMatrix type="matrix" values="0 0 0 0 1 0 0 0 0 1 0 0 0 0 1 0 0 0 1 0"/>
<feBlend mode="normal" in2="BackgroundImageFix" result="effect1_dropShadow_21905_55780"/>
<feBlend mode="normal" in="SourceGraphic" in2="effect1_dropShadow_21905_55780" result="shape"/>
</filter>
<linearGradient id="paint0_linear_21905_55780" x1="250.817" y1="117.452" x2="632.602" y2="584.794" gradientUnits="userSpaceOnUse">
<stop offset="0.166667" stop-color="#7F52FF" stop-opacity="0.5"/>
<stop offset="1" stop-color="#171821" stop-opacity="0"/>
</linearGradient>
<linearGradient id="paint1_linear_21905_55780" x1="373" y1="269" x2="373" y2="44" gradientUnits="userSpaceOnUse">
<stop offset="0.541667" stop-color="white" stop-opacity="0.67"/>
<stop offset="1" stop-color="white" stop-opacity="0"/>
</linearGradient>
</defs>
</svg>
