<svg width="137" height="24" viewBox="0 0 137 24" fill="none" xmlns="http://www.w3.org/2000/svg">
<path d="M15.5974 13.7083L15.5974 23.9575L12.9357 21.2958C12.8479 21.208 12.7817 21.1009 12.7424 20.9831L11.9464 18.595C11.8973 18.4478 11.902 18.2879 11.9597 18.1438C12.5126 16.7615 13.4011 15.5385 14.5448 14.5854L15.5974 13.7083Z" fill="url(#paint0_linear_29168_84448)"/>
<path d="M15.5974 13.7083L15.5974 23.9575L18.2591 21.2958C18.347 21.208 18.4131 21.1009 18.4524 20.9831L19.2484 18.595C19.2975 18.4478 19.2928 18.2879 19.2352 18.1438C18.6822 16.7615 17.7938 15.5385 16.65 14.5854L15.5974 13.7083Z" fill="url(#paint1_linear_29168_84448)"/>
<path d="M10.8295 11.3743L3.58222 18.6216L3.58221 14.8574C3.58221 14.7332 3.61112 14.6107 3.66667 14.4996L4.7924 12.2481C4.86181 12.1093 4.97817 11.9996 5.12083 11.9385C6.48929 11.352 7.98226 11.1155 9.46499 11.2503L10.8295 11.3743Z" fill="url(#paint2_linear_29168_84448)"/>
<path d="M10.8295 11.3743L3.58223 18.6216L7.34646 18.6216C7.47066 18.6216 7.59315 18.5927 7.70423 18.5372L9.95572 17.4115C10.0945 17.342 10.2043 17.2257 10.2654 17.083C10.8519 15.7146 11.0884 14.2216 10.9536 12.7389L10.8295 11.3743Z" fill="url(#paint3_linear_29168_84448)"/>
<path d="M20.3806 11.3743L27.6279 18.6216L27.6279 14.8574C27.6279 14.7332 27.599 14.6107 27.5434 14.4996L26.4177 12.2481C26.3483 12.1093 26.2319 11.9996 26.0893 11.9385C24.7208 11.352 23.2278 11.1155 21.7451 11.2503L20.3806 11.3743Z" fill="url(#paint4_linear_29168_84448)"/>
<path d="M20.3806 11.3743L27.6279 18.6216L23.8636 18.6216C23.7394 18.6216 23.6169 18.5927 23.5059 18.5372L21.2544 17.4115C21.1156 17.342 21.0058 17.2257 20.9447 17.083C20.3582 15.7146 20.1217 14.2216 20.2565 12.7389L20.3806 11.3743Z" fill="url(#paint5_linear_29168_84448)"/>
<circle cx="15.5974" cy="8.73887" r="6.83288" fill="url(#paint6_linear_29168_84448)" stroke="url(#paint7_linear_29168_84448)" stroke-width="3.72703"/>
<circle cx="15.5974" cy="8.7389" r="2.48468" fill="#E0EBFF"/>
<path d="M36.7408 17.7122L33.605 17.7291V6.28786H37.9951C41.3851 6.28786 43.3682 7.89811 43.3682 10.5593C43.3682 13.3052 41.4868 14.9324 38.1646 14.9324H36.7408V17.7122ZM38.0798 9.16936H36.7408V12.0509H38.0798C39.4867 12.0509 40.1477 11.5254 40.1477 10.5593C40.1477 9.66091 39.4358 9.16936 38.0798 9.16936Z" fill="white"/>
<path d="M48.278 17.7291H45.1423V6.28786H48.278V10.5932H52.7698V6.28786H55.9055V17.7291H52.7698V13.4747H48.278V17.7291Z" fill="white"/>
<path d="M63.8029 17.9834C60.3451 17.9834 57.7687 15.4239 57.7687 12.017C57.7687 8.61001 60.3451 6.05056 63.8029 6.05056C67.2607 6.05056 69.8371 8.61001 69.8371 12.017C69.8371 15.4239 67.2607 17.9834 63.8029 17.9834ZM63.8029 15.0171C65.3962 15.0171 66.6166 13.712 66.6166 12.017C66.6166 10.322 65.3962 9.01681 63.8029 9.01681C62.2096 9.01681 60.9892 10.322 60.9892 12.017C60.9892 13.712 62.2096 15.0171 63.8029 15.0171Z" fill="white"/>
<path d="M80.2183 6.28786V9.16936H76.9809V17.7291H73.8451V9.16936H70.6077V6.28786H80.2183Z" fill="white"/>
<path d="M87.0099 17.9834C83.5521 17.9834 80.9757 15.4239 80.9757 12.017C80.9757 8.61001 83.5521 6.05056 87.0099 6.05056C90.4677 6.05056 93.0441 8.61001 93.0441 12.017C93.0441 15.4239 90.4677 17.9834 87.0099 17.9834ZM87.0099 15.0171C88.6032 15.0171 89.8236 13.712 89.8236 12.017C89.8236 10.322 88.6032 9.01681 87.0099 9.01681C85.4166 9.01681 84.1962 10.322 84.1962 12.017C84.1962 13.712 85.4166 15.0171 87.0099 15.0171Z" fill="white"/>
<path d="M97.7979 17.7291H94.8316V7.96591C94.8316 6.74551 95.7808 6.01666 96.7809 6.01666C97.5775 6.01666 98.2725 6.28786 98.6793 6.93196L102.713 13.3221V6.28786H105.68V16.0511C105.68 17.2715 104.73 17.9834 103.73 17.9834C102.951 17.9834 102.239 17.7122 101.832 17.0681L97.7979 10.6779V17.7291Z" fill="white"/>
<path d="M136.818 17.9173H135.454L132.352 13.1103V17.9173H130.823V10.0853H132.187L135.289 14.8813V10.0853H136.818V17.9173Z" fill="#DA3739"/>
<path d="M129.266 14.0013C129.266 14.8593 129.222 15.5083 129.134 15.9483C129.053 16.381 128.837 16.7733 128.485 17.1253C128.199 17.4113 127.884 17.6277 127.539 17.7743C127.194 17.9137 126.806 17.9833 126.373 17.9833C125.94 17.9833 125.548 17.9137 125.196 17.7743C124.851 17.6277 124.536 17.4113 124.25 17.1253C123.913 16.7807 123.7 16.3883 123.612 15.9483C123.524 15.5083 123.48 14.8593 123.48 14.0013C123.48 13.1433 123.524 12.4943 123.612 12.0543C123.7 11.607 123.913 11.2147 124.25 10.8773C124.536 10.5913 124.851 10.3787 125.196 10.2393C125.548 10.0927 125.94 10.0193 126.373 10.0193C126.806 10.0193 127.194 10.0927 127.539 10.2393C127.884 10.3787 128.199 10.5913 128.485 10.8773C128.837 11.222 129.053 11.6143 129.134 12.0543C129.222 12.487 129.266 13.136 129.266 14.0013ZM127.737 14.0013C127.737 13.6127 127.73 13.2973 127.715 13.0553C127.708 12.8133 127.689 12.619 127.66 12.4723C127.631 12.3183 127.59 12.19 127.539 12.0873C127.495 11.9847 127.433 11.8893 127.352 11.8013C127.11 11.5227 126.784 11.3833 126.373 11.3833C126.168 11.3833 125.977 11.42 125.801 11.4933C125.632 11.5667 125.493 11.6693 125.383 11.8013C125.31 11.882 125.247 11.9737 125.196 12.0763C125.152 12.179 125.115 12.3073 125.086 12.4613C125.057 12.6153 125.035 12.8133 125.02 13.0553C125.013 13.29 125.009 13.6053 125.009 14.0013C125.009 14.3973 125.013 14.7127 125.02 14.9473C125.035 15.182 125.057 15.38 125.086 15.5413C125.115 15.6953 125.152 15.8237 125.196 15.9263C125.24 16.0217 125.302 16.1133 125.383 16.2013C125.493 16.3333 125.632 16.436 125.801 16.5093C125.977 16.5827 126.168 16.6193 126.373 16.6193C126.784 16.6193 127.11 16.48 127.352 16.2013C127.433 16.1133 127.495 16.018 127.539 15.9153C127.59 15.8127 127.631 15.688 127.66 15.5413C127.689 15.3873 127.708 15.1893 127.715 14.9473C127.73 14.698 127.737 14.3827 127.737 14.0013Z" fill="#DA3739"/>
<path d="M122.476 17.9173H120.705L119.176 14.7933H118.076V17.9173H116.547V10.0853H119.616C120.004 10.0853 120.356 10.1477 120.672 10.2723C120.994 10.397 121.266 10.5693 121.486 10.7893C121.706 11.0093 121.871 11.266 121.981 11.5593C122.098 11.8453 122.157 12.1533 122.157 12.4833C122.157 13.004 122.021 13.4403 121.75 13.7923C121.478 14.1443 121.137 14.3937 120.727 14.5403L122.476 17.9173ZM120.628 12.4833C120.628 12.1753 120.525 11.926 120.32 11.7353C120.114 11.5447 119.847 11.4493 119.517 11.4493H118.076V13.5173H119.517C119.847 13.5173 120.114 13.422 120.32 13.2313C120.525 13.0407 120.628 12.7913 120.628 12.4833Z" fill="#DA3739"/>
<path d="M115.301 11.4493H113.255V17.9173H111.726V11.4493H109.68V10.0853H115.301V11.4493Z" fill="#DA3739"/>
<defs>
<linearGradient id="paint0_linear_29168_84448" x1="15.5974" y1="13.7083" x2="15.5974" y2="23.647" gradientUnits="userSpaceOnUse">
<stop stop-color="#8100E7"/>
<stop offset="0.536458" stop-color="#3EFFF3"/>
<stop offset="1" stop-color="#00BBF5"/>
</linearGradient>
<linearGradient id="paint1_linear_29168_84448" x1="15.5974" y1="13.7083" x2="15.5974" y2="23.647" gradientUnits="userSpaceOnUse">
<stop stop-color="#1D0AFF"/>
<stop offset="0.510417" stop-color="#00C2FF"/>
</linearGradient>
<linearGradient id="paint2_linear_29168_84448" x1="10.8295" y1="11.3743" x2="3.80178" y2="18.4021" gradientUnits="userSpaceOnUse">
<stop stop-color="#8100E7"/>
<stop offset="0.536458" stop-color="#3EFFF3"/>
<stop offset="1" stop-color="#00BBF5"/>
</linearGradient>
<linearGradient id="paint3_linear_29168_84448" x1="10.8295" y1="11.3743" x2="3.80178" y2="18.4021" gradientUnits="userSpaceOnUse">
<stop stop-color="#1D0AFF"/>
<stop offset="0.510417" stop-color="#00C2FF"/>
</linearGradient>
<linearGradient id="paint4_linear_29168_84448" x1="20.3806" y1="11.3743" x2="27.4083" y2="18.4021" gradientUnits="userSpaceOnUse">
<stop stop-color="#1D0AFF"/>
<stop offset="0.510417" stop-color="#00C2FF"/>
</linearGradient>
<linearGradient id="paint5_linear_29168_84448" x1="20.3806" y1="11.3743" x2="27.4083" y2="18.4021" gradientUnits="userSpaceOnUse">
<stop stop-color="#8100E7"/>
<stop offset="0.536458" stop-color="#3EFFF3"/>
<stop offset="1" stop-color="#00BBF5"/>
</linearGradient>
<linearGradient id="paint6_linear_29168_84448" x1="15.5974" y1="0.0424805" x2="15.5974" y2="17.4353" gradientUnits="userSpaceOnUse">
<stop stop-color="#232323"/>
<stop offset="0.489583" stop-color="#202947"/>
<stop offset="1" stop-color="#232323"/>
</linearGradient>
<linearGradient id="paint7_linear_29168_84448" x1="15.5974" y1="0.0424805" x2="15.5974" y2="17.4353" gradientUnits="userSpaceOnUse">
<stop stop-color="#57FFD7"/>
<stop offset="0.510417" stop-color="#E95FFF"/>
<stop offset="1" stop-color="#01FFFF"/>
</linearGradient>
</defs>
</svg>
